<svg width="241" height="309" viewBox="0 0 241 309" fill="none" xmlns="http://www.w3.org/2000/svg">
<path d="M240.798 160.406C240.731 158.846 240.883 157.238 240.507 155.697C240.419 153.101 240.165 150.521 239.749 147.958C239.187 145.615 239.139 143.219 238.445 140.93C236.963 136.096 236.015 131.068 233.841 126.484C232.423 122.29 230.429 118.332 228.408 114.405C226.068 109.832 223.411 105.448 220.435 101.256C218.918 98.5514 217.046 96.0699 215.323 93.497C212.341 88.5373 209.348 83.5439 207.036 78.2389C205.529 75.7202 204.761 72.8527 203.308 70.3069C199.737 62.3478 195.874 54.5105 191.571 46.8798C189.8 44.185 188.331 41.3176 186.52 38.6498C183.785 34.672 181.134 30.579 177.857 27.0006C176.719 25.5415 175.639 24.0215 174.187 22.8501C170.487 19.0584 166.475 15.6256 162.155 12.5517C158.211 10.1819 154.308 7.67328 150.001 5.9975C145.898 4.33526 141.67 3.0962 137.32 2.27693C133.758 1.23761 130.017 1.33578 126.364 1.10557C124.018 0.675627 121.672 1.27146 119.326 1.29854C116.137 1.38656 113.039 2.14828 109.898 2.61886C106.137 3.48214 102.521 4.84307 98.8749 6.07537C90.2692 9.65714 82.1713 14.8639 76.1858 22.085C73.9007 24.5767 71.9575 27.3087 70.3528 30.2845C68.7887 33.3821 67.1095 36.4764 66.1955 39.8449C65.7181 41.2702 65.0207 42.6209 64.7567 44.1173C62.7322 52.0019 62.7694 60.2657 63.741 68.2959C64.347 70.7165 64.3944 73.259 65.2713 75.6186C66.121 78.6113 67.1163 81.5532 68.2606 84.4444C70.9283 90.8597 73.9278 97.2379 78.3559 102.651C79.0059 99.2894 77.5739 96.0801 76.6463 92.9215C75.7931 89.6512 74.4728 86.5027 73.9075 83.1613C73.6772 82.4199 74.2765 81.4314 73.4166 80.9506H73.8059C75.1601 83.0564 76.6327 85.0707 78.2239 87.0038C79.8861 89.228 81.8158 91.1983 84.0061 92.9113C83.6947 94.4212 82.6351 95.6433 82.3913 97.1769C81.9986 99.33 81.2166 101.371 80.5124 103.426C79.8082 105.478 78.7621 107.425 78.9483 109.622C79.0431 110.512 79.2903 111.358 79.6965 112.157C80.0994 112.956 80.6343 113.657 81.2944 114.263C82.1983 113.82 83.1124 113.396 84.0332 112.96C85.0285 113.464 85.9866 114.03 86.9108 114.652C89.4431 116.426 92.1785 117.909 94.545 119.91C96.109 121.22 97.7476 122.419 99.1864 123.864C101.966 126.721 103.689 130.503 106.871 132.974C109.204 135.09 112.647 136.59 115.778 135.483C117.86 135.033 119.783 134.078 121.645 133.1C124.042 131.37 126.07 129.193 128.294 127.243C129.222 130.286 129.696 133.398 129.719 136.58C129.743 139.762 129.31 142.88 128.426 145.937C125.748 154.015 119.908 160.538 113.815 166.28C108.232 171.111 102.291 175.451 95.9871 179.3C95.3845 179.737 94.4231 179.636 94.0304 180.313C94.0981 181.24 94.8361 181.978 95.3879 182.693C98.0895 185.601 101.211 188.109 103.679 191.231C107.332 189.67 110.433 187.121 113.666 184.859C120.704 179.131 127.17 172.513 131.713 164.601C134.974 158.744 137.425 152.312 137.936 145.588C137.899 142.328 138.203 139.021 137.458 135.828C136.704 130.3 134.276 125.13 131.033 120.628C128.067 123.411 124.936 126 121.645 128.39C119.614 129.707 117.397 130.52 114.993 130.821C113.879 130.581 112.836 130.164 111.865 129.565C107.955 127.223 106.15 122.808 103.049 119.649C101.641 117.933 99.7585 116.711 98.2689 115.082C97.3515 113.786 97.3684 112.117 96.7015 110.715C96.1158 109.73 95.3608 108.86 94.7718 107.878C94.0575 107.614 93.1603 107.208 92.534 107.878C91.0647 108.742 91.2645 110.614 91.2916 112.059C92.2598 112.171 92.5983 113.193 93.14 113.864C91.7114 112.303 89.6903 111.609 87.9197 110.543C86.7483 109.909 85.7429 109.05 84.5884 108.406C84.7069 105.319 86.1965 102.502 86.7585 99.4926C87.1512 97.6509 88.2142 95.948 88.1465 94.0285C87.8757 92.3392 86.9278 90.8564 85.9223 89.5123C82.2288 84.6441 77.6551 80.3142 75.2515 74.5894C74.0327 71.3936 72.6108 68.1842 72.4483 64.7176C71.9168 62.4256 71.6561 60.1032 71.6663 57.7504C71.2465 55.1571 71.5377 52.5368 71.9575 49.9707C72.6447 47.1642 73.2744 44.2764 74.6963 41.734C75.8676 42.973 74.6285 44.6149 75.1634 46.0301C76.2332 50.0892 77.1913 54.3379 79.7507 57.7741C81.9377 61.1324 84.2059 64.4806 87.0463 67.3311C98.2554 78.3946 112.823 85.3314 127.597 90.3689C134.754 92.979 142.245 94.4686 149.68 96.0462C154.741 96.747 159.795 97.5798 164.901 97.8946C171.198 98.5277 177.535 98.5209 183.866 98.5785C186.239 98.697 188.558 97.9793 190.938 98.1892C183.189 99.7905 175.348 101.063 167.433 101.358C164.197 101.828 160.916 101.503 157.653 101.578C155.306 101.707 152.957 101.165 150.611 101.189C149.165 101.206 147.774 100.715 146.342 100.579C141.595 100.132 136.93 99.066 132.313 97.9183C130.464 97.5561 128.792 96.6014 126.943 96.2764C121.097 94.1808 115.491 91.5707 110.125 88.4459C107.115 86.611 103.973 85.003 101.302 82.7077C99.5452 81.6886 98.4348 79.8842 96.6642 78.8957C98.9257 82.3725 101.905 85.284 104.698 88.3173C109.597 92.4373 114.353 96.835 119.919 100.058C123.01 102.147 126.239 103.978 129.618 105.559C133.139 107.391 136.714 109.158 140.472 110.461C148.4 113.386 156.359 116.288 164.444 118.783C173.154 121.86 182.092 124.507 190.261 128.932C199.12 133.198 206.924 139.965 211.721 148.598C213.607 151.598 214.7 154.993 215.997 158.27C217.09 162.427 218.147 166.652 218.404 170.949C218.698 175.959 218.546 180.956 217.943 185.939C217.483 187.964 217.09 190.005 216.701 192.033C216.054 194.535 215.259 196.999 214.409 199.45C210.946 207.772 206.044 215.138 199.703 221.55C197.837 223.314 196.074 225.18 194.205 226.937C192.583 228.592 190.684 229.916 189.042 231.554C187.475 232.726 186.357 234.381 184.875 235.654C182.85 237.702 181.022 239.913 179.397 242.289C176.394 246.477 174.265 251.572 174.563 256.799C177.545 253.675 179.841 250.025 182.779 246.89C184.841 244.375 187.42 242.344 189.963 240.339C195.048 236.467 200.918 233.883 206.338 230.576C209.744 228.981 212.706 226.612 215.726 224.401C219.897 221.276 223.252 217.248 226.356 213.104C229.41 208.266 232.274 203.252 234.18 197.846C236.198 192.639 237.921 187.303 238.821 181.765C239.366 179.483 239.742 177.174 239.949 174.842C240.528 170.034 240.954 165.224 240.798 160.406Z" fill="white"/>
<path d="M151.102 262.334C151.491 253.769 154.159 245.461 157.602 237.655C158.533 234.696 160.34 232.14 161.854 229.455C163.096 227.563 164.108 225.504 165.554 223.751C167.876 220.981 169.803 217.894 172.331 215.287C174.495 212.772 176.668 210.26 178.909 207.819C185.64 200.286 191.842 192.07 195.674 182.669C196.317 180.776 197.025 178.911 197.665 177.015C198.971 172.749 199.483 168.389 199.195 163.937C198.643 159.966 197.208 155.954 194.228 153.151C191.672 150.781 188.047 149.867 184.631 150.087C178.838 150.558 173.652 153.561 169.261 157.187C167.697 158.507 166.742 160.332 165.706 162.058C165.706 162.19 165.706 162.448 165.706 162.586C169.65 159.242 174.518 157.285 179.373 155.673C180.548 155.447 181.746 155.243 182.918 154.962C186.29 154.671 190.007 156.188 191.608 159.309C193.721 162.823 193.677 167.031 193.358 170.975C193.037 173.481 192.238 175.888 191.561 178.315C188.405 186.941 182.562 194.284 175.849 200.466C173.452 203.018 170.923 205.432 168.262 207.707C159.714 215.28 151.487 223.717 146.785 234.259C145.624 236.331 144.784 238.525 144.26 240.837C141.802 247.056 140.898 253.722 140.14 260.323C139.635 260.245 139.131 260.171 138.633 260.107C138.62 258.895 138.714 257.693 138.914 256.498L138.775 255.719C139.165 249.344 138.454 242.75 135.989 236.778C135.129 234.523 133.552 232.675 132.252 230.674C131.47 229.398 130.197 228.524 129.147 227.468C125.884 224.401 121.543 222.979 117.342 221.706C115.206 221.317 113.09 220.795 110.964 220.331C113.49 220.416 115.995 220.768 118.51 221.002C121.811 220.68 125.054 219.973 128.331 219.441C131.402 218.761 134.587 219.549 137.658 218.96C141.057 218.425 144.602 216.987 146.416 213.886C146.416 213.388 146.386 212.9 146.376 212.413C145.925 211.732 145.549 211.011 145.248 210.253C144.493 208.841 143.539 207.582 142.377 206.475C141.216 205.368 139.913 204.471 138.464 203.784C137.14 203.113 135.911 202.301 134.777 201.343C134.672 199.091 135.559 196.854 135.045 194.609L134.002 194.497C133.45 196.132 133.25 197.964 132.133 199.349C130.369 201.969 127.959 204.244 124.98 205.402C123.026 206.045 120.924 205.862 118.913 206.211C116.262 205.889 113.55 205.767 111.008 204.88C108.543 203.919 106.031 202.798 104.149 200.882C103.154 199.972 101.702 199.366 101.329 197.944C100.063 193.218 97.9505 188.905 94.9984 185.005C92.9604 182.767 91.0375 180.404 88.7388 178.42C87.7096 177.614 88.2344 176.179 88.2039 175.075C92.0633 173.515 94.5448 169.567 95.0255 165.518C95.9091 160.311 94.6802 154.648 91.2 150.595C90.4755 149.708 89.4125 149.221 88.6203 148.418C87.8755 147.071 88.3054 145.456 88.0854 143.997C87.3508 139.792 85.9323 135.828 83.8333 132.111C82.7195 130.283 81.2536 128.709 79.9198 127.067C76.9609 123.986 73.2268 121.792 69.4216 119.917C59.2518 115.103 47.1252 115.505 36.82 119.781C32.6661 121.755 28.7797 124.419 25.8073 127.981C22.195 131.86 19.5476 136.776 18.9992 142.091C18.4101 145.412 18.0987 148.967 19.27 152.203C20.3635 155.965 22.6047 159.231 23.9622 162.901C24.7442 164.855 24.9575 166.943 25.5297 168.944C25.6075 170.312 25.5804 171.68 25.7463 173.044C25.0455 173.372 24.3109 173.599 23.5492 173.731C22.3744 172.275 21.027 170.955 19.8523 169.489C18.251 167.336 16.2807 165.457 14.9333 163.121C14.2359 161.872 13.4539 160.684 12.5872 159.546C11.9101 158.321 11.5682 156.943 10.9724 155.673C9.8721 153.381 9.88564 150.734 10.1903 148.256C10.4882 145.592 11.9948 143.323 13.0882 140.947C14.6117 137.792 16.3721 134.779 18.3729 131.904C19.5172 130.472 20.719 129.057 21.5044 127.378C19.507 127.324 17.7093 128.245 15.9557 129.074C12.9325 130.577 10.451 132.906 8.13199 135.32C3.20621 141.13 -0.0404033 148.825 0.917669 156.516C0.839804 158.954 1.87574 161.202 2.40387 163.544C3.25361 167.059 5.03095 170.254 6.34111 173.613C9.04605 179.331 12.1031 184.859 15.5054 190.194C18.1494 193.455 20.1028 197.26 23.17 200.178C27.9265 205.283 32.9471 210.124 37.9541 215.013C41.2989 217.945 44.2578 221.3 47.7075 224.12C52.5622 228.781 57.6166 233.226 62.732 237.6C65.6604 240.431 69.0323 242.726 72.0758 245.411C77.4924 249.372 82.5705 253.79 88.2344 257.412C91.2575 259.822 94.67 261.678 97.7372 264.024C101.539 266.613 105.507 268.946 109.298 271.563C110.625 272.633 112.24 273.245 113.601 274.248C130.004 284.695 146.711 294.668 162.859 305.522C164.579 306.693 166.261 307.916 168.154 308.782C167.673 307.445 166.59 306.46 165.835 305.288C163.259 301.206 160.076 297.478 158.045 293.07C156.021 289.607 154.619 285.832 153.228 282.085C151.206 275.839 150.678 269.244 150.854 262.713L151.102 262.334ZM46.719 207.044C43.5875 204.054 40.1513 201.156 38.3468 197.145C37.7781 194.711 38.1403 192.172 38.5127 189.724C38.7768 186.958 39.4708 184.26 39.6604 181.467C39.7856 178.562 39.8974 175.634 39.525 172.739C38.8919 169.523 38.3502 166.202 36.6304 163.341C35.1476 160 33.157 156.997 30.6552 154.326C28.9895 152.891 27.2968 151.482 25.7362 149.935C24.856 149.109 24.7442 147.877 24.7747 146.749C24.944 141.326 26.6299 135.815 30.2489 131.681C31.9856 129.646 33.9593 127.882 36.1734 126.386C38.3875 124.886 40.764 123.712 43.2997 122.859C45.9166 122.171 48.5133 121.271 51.2453 121.179C54.9692 121.007 58.7948 120.888 62.3968 122.009C64.9562 122.815 67.5765 123.549 69.882 124.954C74.256 127.75 78.2575 131.441 80.414 136.238C80.8981 137.531 81.8765 138.604 82.1203 139.989C82.6857 142.595 83.5489 145.185 83.4508 147.88C83.4271 150.355 82.0898 152.62 82.2252 155.115C83.7893 155.115 85.1942 153.984 86.7752 154.39C87.2052 154.543 87.5776 154.786 87.8924 155.115C88.2073 155.443 88.4307 155.826 88.5661 156.259C89.7409 159.059 89.3786 162.16 89.0604 165.092C88.9351 166.815 88.6237 168.66 87.5268 170.051C83.8096 172.831 79.1513 173.748 74.862 175.305C73.1625 175.966 71.3411 176.087 69.5739 176.538C67.1195 177.079 64.7599 178.102 62.2208 178.217C60.2606 178.298 58.3073 178.251 56.3539 178.075C53.825 177.648 51.3299 176.903 48.7536 176.903L49.0481 176.355C54.4919 175.404 59.9153 177.526 65.3659 176.778C62.0008 175.952 58.5713 175.431 55.169 174.791C51.8242 174.93 48.3745 175.244 45.3106 176.741C44.7961 177.222 44.2646 177.679 43.7466 178.136C46.3195 178.803 49.0481 178.765 51.5703 179.7C54.3531 180.248 56.9463 181.694 59.8476 181.612C60.6093 181.612 61.3745 181.643 62.1429 181.687C59.8679 184.808 58.3445 188.39 56.364 191.694C53.544 196.742 52.1119 202.385 51.0929 208.032C51.0726 208.912 51.1031 209.793 51.181 210.669C49.4984 209.732 48.1883 208.269 46.719 207.044ZM133.216 256.315C130.908 255.171 128.416 254.406 126.222 253.035C123.659 251.572 121.049 250.187 118.486 248.742C113.175 246.189 108.161 243.071 102.876 240.471C97.5443 237.641 92.1547 234.946 86.7448 232.272C75.688 226.953 64.2588 221.862 54.9557 213.693C54.4784 213.175 53.6286 212.792 53.6896 211.98C53.4627 209.105 54.8948 206.512 55.4297 203.746C57.3221 197.365 60.2369 191.251 64.3468 185.98C66.9062 183.535 69.3539 180.749 72.7867 179.51C74.5844 178.945 76.4091 179.899 78.2203 179.51C80.1466 179.314 82.0526 180.069 83.5862 181.206C88.1971 183.986 91.481 188.397 94.2164 192.92C95.8549 195.699 97.2023 198.648 99.0135 201.326C99.6534 202.247 100.622 202.849 101.454 203.574C102.758 204.62 103.804 205.987 105.321 206.766C109.728 209.41 115.064 209.891 120.105 209.813C123.138 209.227 126.476 209.146 129.052 207.24C131.991 205.232 135.742 206.069 138.934 206.901C141.602 207.728 143.982 210.165 143.738 213.124C142.225 214.654 139.943 214.773 138.007 215.467C136.487 216.008 134.902 215.588 133.372 215.368C128.565 216.262 123.791 217.352 118.94 217.965C114.773 218.246 110.571 218.615 106.404 218.094C101.654 218.158 97.2125 215.917 93.4953 213.131C91.8127 211.804 89.9745 210.625 88.6237 208.946C86.5078 207.054 84.5172 205.016 82.5807 202.93C81.2604 201.079 79.5541 199.342 77.3333 198.634C78.0205 200.032 79.0294 201.244 79.6794 202.676C83.1461 207.589 86.8362 212.389 91.1627 216.587C93.5867 218.541 95.8922 220.707 98.807 221.889C104.217 224.323 110.152 225.108 115.805 226.845C119.265 227.624 122.728 228.829 125.545 231.033C128.622 234.002 131.277 237.523 132.698 241.575C133.528 243.637 134.076 245.793 134.75 247.909C135.42 250.025 135.187 252.412 135.965 254.548C136.676 256.109 136.554 258.028 138.058 259.132C136.395 258.275 134.848 257.236 133.216 256.315Z" fill="white"/>
</svg>
