<svg width="306" height="47" viewBox="0 0 306 47" fill="none" xmlns="http://www.w3.org/2000/svg">
<path d="M288.408 46.5278C285.037 46.5278 282.093 45.8664 279.576 44.5438C277.101 43.2211 275.181 41.3224 273.816 38.8478C272.45 36.3731 271.768 33.4504 271.768 30.0798C271.768 27.5624 272.152 25.3011 272.92 23.2958C273.688 21.2904 274.797 19.5838 276.248 18.1758C277.741 16.7251 279.512 15.6371 281.56 14.9118C283.608 14.1438 285.89 13.7598 288.408 13.7598C291.778 13.7598 294.701 14.4211 297.176 15.7438C299.693 17.0664 301.634 18.9438 303 21.3758C304.408 23.8078 305.112 26.7091 305.112 30.0798C305.112 32.6398 304.706 34.9224 303.896 36.9278C303.128 38.9331 302.018 40.6611 300.568 42.1118C299.117 43.5624 297.346 44.6718 295.256 45.4398C293.208 46.1651 290.925 46.5278 288.408 46.5278ZM288.408 39.2958C289.816 39.2958 291.032 38.9544 292.056 38.2718C293.08 37.5891 293.89 36.5864 294.488 35.2638C295.085 33.8984 295.384 32.1704 295.384 30.0798C295.384 26.9651 294.744 24.6824 293.464 23.2318C292.184 21.7384 290.498 20.9918 288.408 20.9918C287.042 20.9918 285.826 21.3118 284.76 21.9518C283.736 22.5918 282.925 23.5944 282.328 24.9598C281.773 26.2824 281.496 27.9891 281.496 30.0798C281.496 33.1944 282.136 35.5198 283.416 37.0558C284.696 38.5491 286.36 39.2958 288.408 39.2958Z" fill="white"/>
<path d="M254.524 46.528C249.66 46.528 245.5 45.568 242.044 43.648C238.588 41.728 235.921 39.04 234.044 35.584C232.209 32.0853 231.292 27.968 231.292 23.232C231.292 19.6907 231.804 16.512 232.828 13.696C233.895 10.8373 235.431 8.40533 237.436 6.4C239.441 4.352 241.873 2.77333 244.732 1.664C247.633 0.554666 250.897 0 254.524 0C256.657 0 258.812 0.277334 260.988 0.832001C263.207 1.344 265.127 2.09067 266.748 3.072C267.815 3.66933 268.54 4.416 268.924 5.312C269.308 6.208 269.415 7.104 269.244 8C269.116 8.896 268.753 9.664 268.156 10.304C267.601 10.944 266.897 11.3493 266.044 11.52C265.191 11.6907 264.231 11.4987 263.164 10.944C261.884 10.176 260.54 9.62133 259.132 9.28C257.724 8.93866 256.295 8.768 254.844 8.768C251.985 8.768 249.575 9.344 247.612 10.496C245.692 11.6053 244.241 13.2267 243.26 15.36C242.279 17.4933 241.788 20.1173 241.788 23.232C241.788 26.304 242.279 28.928 243.26 31.104C244.241 33.28 245.692 34.944 247.612 36.096C249.575 37.2053 251.985 37.76 254.844 37.76C256.209 37.76 257.596 37.5893 259.004 37.248C260.455 36.9067 261.841 36.3733 263.164 35.648C264.273 35.0933 265.255 34.9013 266.108 35.072C267.004 35.2 267.729 35.584 268.284 36.224C268.881 36.8213 269.244 37.5467 269.372 38.4C269.543 39.2533 269.457 40.1067 269.116 40.96C268.775 41.8133 268.135 42.5387 267.196 43.136C265.617 44.2027 263.676 45.0347 261.372 45.632C259.068 46.2293 256.785 46.528 254.524 46.528Z" fill="white"/>
<path d="M200.18 46.528C196.852 46.528 193.951 45.9947 191.476 44.928C189.044 43.8613 187.167 42.3893 185.844 40.512C184.522 38.6347 183.86 36.4373 183.86 33.92C183.86 32.4693 184.052 31.1253 184.436 29.888C184.863 28.608 185.46 27.456 186.228 26.432C187.039 25.3653 187.999 24.384 189.108 23.488C190.218 22.5493 191.455 21.696 192.82 20.928L195.06 19.648L193.652 21.632C191.86 19.9253 190.538 18.2187 189.684 16.512C188.874 14.8053 188.468 13.056 188.468 11.264C188.468 9.04533 189.023 7.08267 190.132 5.376C191.242 3.66933 192.799 2.34667 194.804 1.408C196.81 0.469334 199.135 0 201.78 0C205.45 0 208.351 0.938666 210.484 2.816C212.618 4.65067 213.684 7.14667 213.684 10.304C213.684 11.968 213.364 13.5467 212.724 15.04C212.084 16.4907 211.082 17.8773 209.716 19.2C208.351 20.48 206.559 21.6747 204.34 22.784L204.404 20.736L214.644 31.232H212.532C213.087 30.3787 213.556 29.44 213.94 28.416C214.367 27.392 214.73 26.304 215.028 25.152C215.327 24 215.562 22.8267 215.732 21.632C215.988 20.352 216.436 19.392 217.076 18.752C217.759 18.112 218.719 17.792 219.956 17.792C221.279 17.792 222.26 18.176 222.9 18.944C223.583 19.6693 223.839 20.7147 223.668 22.08C223.412 24 223.028 25.8347 222.516 27.584C222.004 29.3333 221.364 30.976 220.596 32.512C219.871 34.0053 219.039 35.392 218.1 36.672L218.036 34.432L223.796 40.064C224.82 41.0027 225.332 41.9627 225.332 42.944C225.332 43.9253 224.948 44.7573 224.18 45.44C223.455 46.08 222.452 46.4 221.172 46.4C220.02 46.4 219.082 46.1867 218.356 45.76C217.674 45.2907 216.884 44.6293 215.988 43.776L212.724 40.384H214.836C212.916 42.2613 210.676 43.7547 208.116 44.864C205.599 45.9733 202.954 46.528 200.18 46.528ZM200.756 39.04C202.591 39.04 204.212 38.6987 205.62 38.016C207.071 37.3333 208.415 36.3307 209.652 35.008L209.396 37.312L196.404 24.384L200.5 24.64L198.772 25.6C197.535 26.2827 196.511 27.008 195.7 27.776C194.932 28.5013 194.356 29.312 193.972 30.208C193.631 31.104 193.46 32.0853 193.46 33.152C193.46 34.9867 194.1 36.4373 195.38 37.504C196.66 38.528 198.452 39.04 200.756 39.04ZM201.78 6.592C200.415 6.592 199.327 6.99733 198.516 7.808C197.706 8.576 197.3 9.64267 197.3 11.008C197.3 11.7333 197.428 12.4373 197.684 13.12C197.94 13.76 198.346 14.464 198.9 15.232C199.498 15.9573 200.308 16.8533 201.332 17.92L199.284 17.792C200.948 16.9387 202.25 16.1493 203.188 15.424C204.17 14.6987 204.874 13.952 205.3 13.184C205.727 12.416 205.94 11.584 205.94 10.688C205.94 9.32267 205.556 8.29867 204.788 7.616C204.063 6.93333 203.06 6.592 201.78 6.592Z" fill="white"/>
<path d="M159.115 46.5278C156.811 46.5278 154.742 46.0798 152.907 45.1838C151.072 44.2878 149.643 43.0718 148.619 41.5358C147.595 39.9998 147.083 38.2718 147.083 36.3518C147.083 34.0478 147.68 32.2344 148.875 30.9118C150.07 29.5464 152.011 28.5864 154.699 28.0318C157.387 27.4344 160.95 27.1358 165.387 27.1358H168.779V32.1278H165.451C163.275 32.1278 161.504 32.2558 160.139 32.5118C158.816 32.7251 157.856 33.1091 157.259 33.6638C156.704 34.2184 156.427 34.9864 156.427 35.9678C156.427 37.1624 156.832 38.1438 157.643 38.9118C158.496 39.6798 159.712 40.0638 161.291 40.0638C162.528 40.0638 163.616 39.7864 164.555 39.2318C165.536 38.6344 166.304 37.8451 166.859 36.8638C167.414 35.8398 167.691 34.6878 167.691 33.4078V26.0478C167.691 24.1704 167.264 22.8478 166.411 22.0798C165.558 21.2691 164.107 20.8638 162.059 20.8638C160.907 20.8638 159.648 21.0131 158.283 21.3118C156.96 21.5678 155.488 22.0158 153.867 22.6558C152.928 23.0824 152.096 23.1891 151.371 22.9758C150.646 22.7198 150.091 22.2931 149.707 21.6958C149.323 21.0558 149.131 20.3731 149.131 19.6478C149.131 18.8798 149.344 18.1544 149.771 17.4718C150.198 16.7464 150.902 16.2131 151.883 15.8718C153.888 15.0611 155.766 14.5064 157.515 14.2078C159.307 13.9091 160.95 13.7598 162.443 13.7598C165.728 13.7598 168.416 14.2504 170.507 15.2318C172.64 16.1704 174.24 17.6424 175.307 19.6478C176.374 21.6104 176.907 24.1491 176.907 27.2638V41.4718C176.907 43.0504 176.523 44.2664 175.755 45.1198C174.987 45.9731 173.878 46.3998 172.427 46.3998C170.976 46.3998 169.846 45.9731 169.035 45.1198C168.267 44.2664 167.883 43.0504 167.883 41.4718V39.1038L168.331 39.4878C168.075 40.9384 167.52 42.1971 166.667 43.2638C165.856 44.2878 164.811 45.0984 163.531 45.6958C162.251 46.2504 160.779 46.5278 159.115 46.5278Z" fill="white"/>
<path d="M96.6081 46.3998C95.0295 46.3998 93.8135 45.9731 92.9601 45.1198C92.1495 44.2664 91.7441 43.0504 91.7441 41.4718V18.7518C91.7441 17.1731 92.1495 15.9784 92.9601 15.1678C93.8135 14.3144 94.9868 13.8878 96.4801 13.8878C98.0161 13.8878 99.1895 14.3144 100 15.1678C100.811 15.9784 101.216 17.1731 101.216 18.7518V22.8478L100.512 20.2878C101.365 18.3251 102.688 16.7464 104.48 15.5518C106.272 14.3571 108.384 13.7598 110.816 13.7598C113.248 13.7598 115.275 14.3358 116.896 15.4878C118.517 16.6398 119.669 18.4104 120.352 20.7998H119.456C120.395 18.6238 121.824 16.9171 123.744 15.6798C125.707 14.3998 127.947 13.7598 130.464 13.7598C132.896 13.7598 134.88 14.2504 136.416 15.2318C137.995 16.1704 139.168 17.6211 139.936 19.5838C140.704 21.5038 141.088 23.9571 141.088 26.9438V41.4718C141.088 43.0504 140.661 44.2664 139.808 45.1198C138.997 45.9731 137.824 46.3998 136.288 46.3998C134.709 46.3998 133.493 45.9731 132.64 45.1198C131.829 44.2664 131.424 43.0504 131.424 41.4718V27.2638C131.424 25.1731 131.083 23.6584 130.4 22.7198C129.76 21.7384 128.651 21.2478 127.072 21.2478C125.237 21.2478 123.808 21.8878 122.784 23.1678C121.76 24.4478 121.248 26.2611 121.248 28.6078V41.4718C121.248 43.0504 120.821 44.2664 119.968 45.1198C119.157 45.9731 117.984 46.3998 116.448 46.3998C114.912 46.3998 113.717 45.9731 112.864 45.1198C112.011 44.2664 111.584 43.0504 111.584 41.4718V27.2638C111.584 25.1731 111.243 23.6584 110.56 22.7198C109.92 21.7384 108.811 21.2478 107.232 21.2478C105.397 21.2478 103.968 21.8878 102.944 23.1678C101.92 24.4478 101.408 26.2611 101.408 28.6078V41.4718C101.408 44.7571 99.8081 46.3998 96.6081 46.3998Z" fill="white"/>
<path d="M66.615 46.5278C64.311 46.5278 62.2417 46.0798 60.407 45.1838C58.5723 44.2878 57.143 43.0718 56.119 41.5358C55.095 39.9998 54.583 38.2718 54.583 36.3518C54.583 34.0478 55.1803 32.2344 56.375 30.9118C57.5697 29.5464 59.511 28.5864 62.199 28.0318C64.887 27.4344 68.4497 27.1358 72.887 27.1358H76.279V32.1278H72.951C70.775 32.1278 69.0043 32.2558 67.639 32.5118C66.3163 32.7251 65.3563 33.1091 64.759 33.6638C64.2043 34.2184 63.927 34.9864 63.927 35.9678C63.927 37.1624 64.3323 38.1438 65.143 38.9118C65.9963 39.6798 67.2123 40.0638 68.791 40.0638C70.0283 40.0638 71.1163 39.7864 72.055 39.2318C73.0363 38.6344 73.8043 37.8451 74.359 36.8638C74.9137 35.8398 75.191 34.6878 75.191 33.4078V26.0478C75.191 24.1704 74.7643 22.8478 73.911 22.0798C73.0577 21.2691 71.607 20.8638 69.559 20.8638C68.407 20.8638 67.1483 21.0131 65.783 21.3118C64.4603 21.5678 62.9883 22.0158 61.367 22.6558C60.4283 23.0824 59.5963 23.1891 58.871 22.9758C58.1457 22.7198 57.591 22.2931 57.207 21.6958C56.823 21.0558 56.631 20.3731 56.631 19.6478C56.631 18.8798 56.8443 18.1544 57.271 17.4718C57.6977 16.7464 58.4017 16.2131 59.383 15.8718C61.3883 15.0611 63.2657 14.5064 65.015 14.2078C66.807 13.9091 68.4497 13.7598 69.943 13.7598C73.2283 13.7598 75.9163 14.2504 78.007 15.2318C80.1403 16.1704 81.7403 17.6424 82.807 19.6478C83.8737 21.6104 84.407 24.1491 84.407 27.2638V41.4718C84.407 43.0504 84.023 44.2664 83.255 45.1198C82.487 45.9731 81.3777 46.3998 79.927 46.3998C78.4763 46.3998 77.3457 45.9731 76.535 45.1198C75.767 44.2664 75.383 43.0504 75.383 41.4718V39.1038L75.831 39.4878C75.575 40.9384 75.0203 42.1971 74.167 43.2638C73.3563 44.2878 72.311 45.0984 71.031 45.6958C69.751 46.2504 68.279 46.5278 66.615 46.5278Z" fill="white"/>
<path d="M5.36867 46.3999C3.918 46.3999 2.80867 45.9946 2.04067 45.1839C1.27267 44.3733 0.888672 43.2426 0.888672 41.7919V4.73593C0.888672 3.28526 1.29401 2.1546 2.10467 1.34393C2.95801 0.533263 4.11001 0.12793 5.56067 0.12793C6.84067 0.12793 7.84334 0.38393 8.56867 0.895931C9.33667 1.36526 10.0407 2.19726 10.6807 3.39193L25.4647 30.3999H23.2887L38.0727 3.39193C38.7127 2.19726 39.3953 1.36526 40.1207 0.895931C40.8887 0.38393 41.8913 0.12793 43.1287 0.12793C44.5793 0.12793 45.6887 0.533263 46.4567 1.34393C47.2673 2.1546 47.6727 3.28526 47.6727 4.73593V41.7919C47.6727 43.2426 47.2887 44.3733 46.5207 45.1839C45.7527 45.9946 44.6433 46.3999 43.1927 46.3999C41.742 46.3999 40.6113 45.9946 39.8007 45.1839C39.0327 44.3733 38.6487 43.2426 38.6487 41.7919V15.8719H40.0567L28.1527 37.1839C27.6407 37.9946 27.086 38.6133 26.4887 39.0399C25.934 39.4239 25.1873 39.6159 24.2487 39.6159C23.31 39.6159 22.542 39.4026 21.9447 38.9759C21.3473 38.5493 20.814 37.9519 20.3447 37.1839L8.31267 15.8079H9.84867V41.7919C9.84867 43.2426 9.46467 44.3733 8.69667 45.1839C7.97134 45.9946 6.86201 46.3999 5.36867 46.3999Z" fill="white"/>
</svg>
