<svg width="200" height="33" viewBox="0 0 200 33" fill="none" xmlns="http://www.w3.org/2000/svg">
<path d="M187.34 31.2746C185.166 31.2746 183.267 30.848 181.643 29.9949C180.047 29.1417 178.809 27.9171 177.928 26.3209C177.047 24.7247 176.607 22.8395 176.607 20.6653C176.607 19.0416 176.855 17.583 177.35 16.2896C177.845 14.9961 178.561 13.8953 179.497 12.9871C180.46 12.0514 181.602 11.3496 182.923 10.8817C184.244 10.3864 185.716 10.1387 187.34 10.1387C189.514 10.1387 191.399 10.5652 192.996 11.4184C194.619 12.2715 195.872 13.4824 196.752 15.0511C197.66 16.6198 198.114 18.4912 198.114 20.6653C198.114 22.3166 197.853 23.7889 197.33 25.0824C196.835 26.3759 196.119 27.4905 195.184 28.4262C194.248 29.3619 193.106 30.0774 191.757 30.5728C190.436 31.0407 188.964 31.2746 187.34 31.2746ZM187.34 26.6098C188.248 26.6098 189.033 26.3897 189.693 25.9493C190.354 25.509 190.877 24.8623 191.262 24.0091C191.647 23.1284 191.84 22.0139 191.84 20.6653C191.84 18.6563 191.427 17.184 190.601 16.2483C189.776 15.285 188.689 14.8034 187.34 14.8034C186.459 14.8034 185.675 15.0098 184.987 15.4226C184.327 15.8355 183.804 16.4822 183.418 17.3629C183.061 18.216 182.882 19.3168 182.882 20.6653C182.882 22.6744 183.295 24.1742 184.12 25.165C184.946 26.1282 186.019 26.6098 187.34 26.6098Z" fill="#4D4DE8"/>
<path d="M165.485 31.2745C162.347 31.2745 159.664 30.6553 157.435 29.4169C155.206 28.1784 153.486 26.4446 152.275 24.2155C151.091 21.9588 150.5 19.303 150.5 16.2482C150.5 13.964 150.83 11.9137 151.49 10.0973C152.178 8.25345 153.169 6.68477 154.463 5.39129C155.756 4.0703 157.325 3.05203 159.169 2.33649C161.04 1.62095 163.145 1.26318 165.485 1.26318C166.861 1.26318 168.25 1.44207 169.654 1.79984C171.085 2.13009 172.324 2.6117 173.369 3.24467C174.057 3.62996 174.525 4.11158 174.773 4.68951C175.021 5.26745 175.089 5.84538 174.979 6.42332C174.897 7.00125 174.663 7.49663 174.278 7.90944C173.92 8.32225 173.466 8.58369 172.915 8.69378C172.365 8.80386 171.746 8.68002 171.058 8.32225C170.232 7.82688 169.365 7.46911 168.457 7.24894C167.549 7.02877 166.627 6.91869 165.691 6.91869C163.847 6.91869 162.292 7.29022 161.026 8.03328C159.788 8.74882 158.852 9.79461 158.219 11.1706C157.586 12.5467 157.27 14.2392 157.27 16.2482C157.27 18.2297 157.586 19.9222 158.219 21.3258C158.852 22.7293 159.788 23.8027 161.026 24.5457C162.292 25.2613 163.847 25.619 165.691 25.619C166.572 25.619 167.466 25.5089 168.374 25.2888C169.31 25.0686 170.204 24.7246 171.058 24.2567C171.773 23.899 172.406 23.7751 172.957 23.8852C173.534 23.9678 174.002 24.2155 174.36 24.6283C174.745 25.0136 174.979 25.4814 175.062 26.0318C175.172 26.5822 175.117 27.1327 174.897 27.6831C174.677 28.2335 174.264 28.7013 173.658 29.0866C172.64 29.7746 171.388 30.3113 169.902 30.6966C168.416 31.0819 166.943 31.2745 165.485 31.2745Z" fill="#4D4DE8"/>
<path d="M130.432 31.2745C128.285 31.2745 126.414 30.9305 124.818 30.2425C123.249 29.5545 122.038 28.605 121.185 27.3941C120.332 26.1832 119.905 24.7659 119.905 23.1422C119.905 22.2065 120.029 21.3395 120.277 20.5414C120.552 19.7158 120.937 18.9728 121.433 18.3123C121.956 17.6243 122.575 16.9913 123.29 16.4133C124.006 15.8079 124.804 15.2575 125.685 14.7621L127.13 13.9365L126.221 15.2162C125.066 14.1154 124.212 13.0145 123.662 11.9137C123.139 10.8129 122.878 9.68452 122.878 8.52865C122.878 7.09758 123.235 5.83162 123.951 4.73079C124.666 3.62996 125.671 2.77682 126.964 2.17137C128.258 1.56591 129.758 1.26318 131.464 1.26318C133.831 1.26318 135.702 1.86864 137.078 3.07955C138.454 4.26294 139.142 5.8729 139.142 7.90944C139.142 8.98275 138.936 10.001 138.523 10.9642C138.11 11.8999 137.464 12.7944 136.583 13.6475C135.702 14.4731 134.546 15.2437 133.115 15.9592L133.157 14.6383L139.762 21.4083H138.399C138.757 20.8579 139.06 20.2525 139.308 19.592C139.583 18.9315 139.817 18.2297 140.009 17.4866C140.202 16.7436 140.353 15.9868 140.463 15.2162C140.628 14.3906 140.917 13.7714 141.33 13.3585C141.771 12.9457 142.39 12.7393 143.188 12.7393C144.041 12.7393 144.674 12.987 145.087 13.4824C145.527 13.9502 145.692 14.6245 145.582 15.5052C145.417 16.7436 145.169 17.927 144.839 19.0553C144.509 20.1837 144.096 21.2432 143.601 22.234C143.133 23.1972 142.596 24.0916 141.991 24.9172L141.949 23.4724L145.665 27.1051C146.325 27.7106 146.656 28.3298 146.656 28.9628C146.656 29.5958 146.408 30.1324 145.912 30.5728C145.445 30.9856 144.798 31.192 143.972 31.192C143.229 31.192 142.624 31.0544 142.156 30.7792C141.716 30.4764 141.206 30.0499 140.628 29.4994L138.523 27.3115H139.885C138.647 28.5225 137.202 29.4857 135.551 30.2012C133.927 30.9168 132.221 31.2745 130.432 31.2745ZM130.804 26.4446C131.987 26.4446 133.033 26.2245 133.941 25.7841C134.877 25.3438 135.744 24.6971 136.542 23.8439L136.377 25.3301L127.996 16.9913L130.638 17.1564L129.524 17.7756C128.726 18.2159 128.065 18.6838 127.542 19.1792C127.047 19.647 126.675 20.1699 126.428 20.7479C126.208 21.3258 126.098 21.9588 126.098 22.6468C126.098 23.8302 126.51 24.7659 127.336 25.4539C128.162 26.1144 129.317 26.4446 130.804 26.4446ZM131.464 5.51513C130.583 5.51513 129.882 5.77658 129.359 6.29947C128.836 6.79485 128.574 7.48287 128.574 8.36353C128.574 8.83138 128.657 9.28547 128.822 9.7258C128.987 10.1386 129.249 10.5927 129.606 11.0881C129.992 11.5559 130.515 12.1339 131.175 12.8219L129.854 12.7393C130.927 12.1889 131.767 11.6798 132.372 11.2119C133.005 10.7441 133.459 10.2625 133.735 9.76708C134.01 9.27171 134.147 8.73506 134.147 8.15712C134.147 7.27646 133.9 6.61596 133.404 6.17563C132.936 5.7353 132.29 5.51513 131.464 5.51513Z" fill="#4D4DE8"/>
<path d="M103.944 31.2746C102.458 31.2746 101.123 30.9856 99.9399 30.4077C98.7565 29.8297 97.8346 29.0454 97.1741 28.0547C96.5136 27.0639 96.1833 25.9493 96.1833 24.7109C96.1833 23.2248 96.5686 22.0551 97.3392 21.202C98.1098 20.3213 99.362 19.7021 101.096 19.3444C102.83 18.9591 105.128 18.7664 107.99 18.7664H110.178V21.9863H108.031C106.627 21.9863 105.485 22.0689 104.605 22.234C103.752 22.3716 103.132 22.6193 102.747 22.9771C102.389 23.3349 102.21 23.8302 102.21 24.4632C102.21 25.2338 102.472 25.8668 102.995 26.3621C103.545 26.8575 104.329 27.1052 105.348 27.1052C106.146 27.1052 106.848 26.9263 107.453 26.5685C108.086 26.1833 108.581 25.6741 108.939 25.0411C109.297 24.3806 109.476 23.6376 109.476 22.812V18.0646C109.476 16.8537 109.201 16.0006 108.65 15.5052C108.1 14.9823 107.164 14.7209 105.843 14.7209C105.1 14.7209 104.288 14.8172 103.408 15.0098C102.554 15.175 101.605 15.4639 100.559 15.8767C99.9537 16.1519 99.417 16.2208 98.9492 16.0831C98.4813 15.918 98.1236 15.6428 97.8759 15.2575C97.6282 14.8447 97.5043 14.4044 97.5043 13.9365C97.5043 13.4412 97.642 12.9733 97.9172 12.533C98.1924 12.0651 98.6465 11.7211 99.2794 11.5009C100.573 10.9781 101.784 10.6203 102.912 10.4276C104.068 10.235 105.128 10.1387 106.091 10.1387C108.21 10.1387 109.944 10.4552 111.292 11.0881C112.668 11.6936 113.7 12.6431 114.388 13.9365C115.076 15.2025 115.42 16.84 115.42 18.849V28.0134C115.42 29.0316 115.173 29.816 114.677 30.3664C114.182 30.9168 113.466 31.192 112.531 31.192C111.595 31.192 110.866 30.9168 110.343 30.3664C109.847 29.816 109.6 29.0316 109.6 28.0134V26.486L109.889 26.7337C109.724 27.6694 109.366 28.4812 108.815 29.1692C108.292 29.8297 107.618 30.3526 106.793 30.7379C105.967 31.0957 105.017 31.2746 103.944 31.2746Z" fill="#4D4DE8"/>
<path d="M63.6263 31.192C62.608 31.192 61.8236 30.9168 61.2732 30.3664C60.7503 29.816 60.4889 29.0316 60.4889 28.0134V13.3586C60.4889 12.3403 60.7503 11.5698 61.2732 11.0469C61.8236 10.4964 62.5805 10.2212 63.5437 10.2212C64.5344 10.2212 65.2913 10.4964 65.8142 11.0469C66.337 11.5698 66.5985 12.3403 66.5985 13.3586V16.0006L66.1444 14.3493C66.6948 13.0834 67.548 12.0651 68.7038 11.2945C69.8597 10.524 71.222 10.1387 72.7907 10.1387C74.3593 10.1387 75.6666 10.5102 76.7124 11.2533C77.7581 11.9963 78.5012 13.1384 78.9415 14.6796H78.3636C78.9691 13.276 79.891 12.1752 81.1294 11.3771C82.3954 10.5515 83.8402 10.1387 85.4639 10.1387C87.0326 10.1387 88.3123 10.4552 89.3031 11.0881C90.3213 11.6936 91.0782 12.6293 91.5735 13.8953C92.0689 15.1337 92.3166 16.7161 92.3166 18.6426V28.0134C92.3166 29.0316 92.0414 29.816 91.491 30.3664C90.9681 30.9168 90.2113 31.192 89.2205 31.192C88.2023 31.192 87.4179 30.9168 86.8675 30.3664C86.3446 29.816 86.0832 29.0316 86.0832 28.0134V18.849C86.0832 17.5005 85.863 16.5235 85.4227 15.918C85.0099 15.285 84.2943 14.9686 83.276 14.9686C82.0927 14.9686 81.1707 15.3814 80.5102 16.207C79.8497 17.0326 79.5195 18.2022 79.5195 19.7159V28.0134C79.5195 29.0316 79.2443 29.816 78.6938 30.3664C78.171 30.9168 77.4141 31.192 76.4234 31.192C75.4326 31.192 74.6621 30.9168 74.1116 30.3664C73.5612 29.816 73.286 29.0316 73.286 28.0134V18.849C73.286 17.5005 73.0659 16.5235 72.6255 15.918C72.2127 15.285 71.4972 14.9686 70.4789 14.9686C69.2955 14.9686 68.3736 15.3814 67.7131 16.207C67.0526 17.0326 66.7223 18.2022 66.7223 19.7159V28.0134C66.7223 30.1325 65.6903 31.192 63.6263 31.192Z" fill="#4D4DE8"/>
<path d="M44.2801 31.2746C42.794 31.2746 41.4593 30.9856 40.2759 30.4077C39.0925 29.8297 38.1705 29.0454 37.51 28.0547C36.8495 27.0639 36.5193 25.9493 36.5193 24.7109C36.5193 23.2248 36.9046 22.0551 37.6752 21.202C38.4457 20.3213 39.6979 19.7021 41.4317 19.3444C43.1655 18.9591 45.4635 18.7664 48.3257 18.7664H50.5136V21.9863H48.367C46.9634 21.9863 45.8213 22.0689 44.9406 22.234C44.0875 22.3716 43.4683 22.6193 43.083 22.9771C42.7252 23.3349 42.5463 23.8302 42.5463 24.4632C42.5463 25.2338 42.8078 25.8668 43.3307 26.3621C43.8811 26.8575 44.6654 27.1052 45.6837 27.1052C46.4818 27.1052 47.1836 26.9263 47.789 26.5685C48.422 26.1833 48.9174 25.6741 49.2751 25.0411C49.6329 24.3806 49.8118 23.6376 49.8118 22.812V18.0646C49.8118 16.8537 49.5366 16.0006 48.9862 15.5052C48.4358 14.9823 47.5001 14.7209 46.1791 14.7209C45.436 14.7209 44.6241 14.8172 43.7435 15.0098C42.8903 15.175 41.9409 15.4639 40.8951 15.8767C40.2896 16.1519 39.753 16.2208 39.2851 16.0831C38.8173 15.918 38.4595 15.6428 38.2118 15.2575C37.9641 14.8447 37.8403 14.4044 37.8403 13.9365C37.8403 13.4412 37.9779 12.9733 38.2531 12.533C38.5283 12.0651 38.9824 11.7211 39.6154 11.5009C40.9088 10.9781 42.1198 10.6203 43.2481 10.4276C44.404 10.235 45.4635 10.1387 46.4267 10.1387C48.5458 10.1387 50.2796 10.4552 51.6282 11.0881C53.0042 11.6936 54.0362 12.6431 54.7242 13.9365C55.4123 15.2025 55.7563 16.84 55.7563 18.849V28.0134C55.7563 29.0316 55.5086 29.816 55.0132 30.3664C54.5178 30.9168 53.8023 31.192 52.8666 31.192C51.9309 31.192 51.2016 30.9168 50.6787 30.3664C50.1833 29.816 49.9356 29.0316 49.9356 28.0134V26.486L50.2246 26.7337C50.0595 27.6694 49.7017 28.4812 49.1513 29.1692C48.6284 29.8297 47.9541 30.3526 47.1285 30.7379C46.3029 31.0957 45.3534 31.2746 44.2801 31.2746Z" fill="#4D4DE8"/>
<path d="M4.7753 31.1919C3.83959 31.1919 3.12405 30.9305 2.62868 30.4076C2.13331 29.8847 1.88562 29.1554 1.88562 28.2197V4.31794C1.88562 3.38224 2.14707 2.65294 2.66996 2.13004C3.22037 1.60715 3.96343 1.3457 4.89914 1.3457C5.72476 1.3457 6.3715 1.51083 6.83935 1.84108C7.33472 2.1438 7.78881 2.68046 8.20162 3.45104L17.7376 20.8717H16.334L25.8699 3.45104C26.2827 2.68046 26.7231 2.1438 27.1909 1.84108C27.6863 1.51083 28.333 1.3457 29.1311 1.3457C30.0668 1.3457 30.7824 1.60715 31.2777 2.13004C31.8006 2.65294 32.0621 3.38224 32.0621 4.31794V28.2197C32.0621 29.1554 31.8144 29.8847 31.319 30.4076C30.8237 30.9305 30.1081 31.1919 29.1724 31.1919C28.2367 31.1919 27.5074 30.9305 26.9845 30.4076C26.4891 29.8847 26.2415 29.1554 26.2415 28.2197V11.5008H27.1496L19.4714 25.2474C19.1411 25.7703 18.7833 26.1694 18.3981 26.4446C18.0403 26.6923 17.5587 26.8161 16.9532 26.8161C16.3478 26.8161 15.8524 26.6785 15.4671 26.4033C15.0818 26.1281 14.7378 25.7428 14.4351 25.2474L6.67422 11.4596H7.66497V28.2197C7.66497 29.1554 7.41728 29.8847 6.92191 30.4076C6.45406 30.9305 5.73852 31.1919 4.7753 31.1919Z" fill="#4D4DE8"/>
</svg>
