<svg width="28" height="28" viewBox="0 0 28 28" fill="none" xmlns="http://www.w3.org/2000/svg">
<path d="M13.999 6.85156C13.2256 5.9375 11.5029 5.12012 9.48145 5.12012C6.7832 5.12012 4.60352 6.51758 4.02344 7.84473V21.0371C4.02344 21.8984 4.58594 22.2324 5.20996 22.2324C5.67578 22.2324 5.93945 22.0918 6.23828 21.8721C6.83594 21.3887 7.81152 20.8262 9.48145 20.8262C11.1602 20.8262 12.3027 21.3887 12.8125 21.8193C13.0938 22.0303 13.4189 22.2324 13.999 22.2324C14.5791 22.2324 14.8955 22.0127 15.1855 21.8193C15.7305 21.415 16.8379 20.8262 18.5166 20.8262C20.1865 20.8262 21.1797 21.3975 21.7598 21.8721C22.0586 22.0918 22.3223 22.2324 22.7881 22.2324C23.4121 22.2324 23.9746 21.8984 23.9746 21.0371V7.84473C23.3945 6.51758 21.2236 5.12012 18.5166 5.12012C16.4951 5.12012 14.7812 5.9375 13.999 6.85156ZM5.93066 8.45117C6.16797 7.87109 7.46875 6.88672 9.48145 6.88672C11.4941 6.88672 12.8389 7.87988 13.0498 8.45117V20.0439C12.1445 19.3936 10.8525 19.042 9.48145 19.042C8.10156 19.042 6.81836 19.3936 5.93066 20.0703V8.45117ZM22.0674 8.45117V20.0703C21.1797 19.3936 19.8965 19.042 18.5166 19.042C17.1455 19.042 15.8535 19.3936 14.9482 20.0439V8.45117C15.1592 7.87988 16.5039 6.88672 18.5166 6.88672C20.5293 6.88672 21.8301 7.87109 22.0674 8.45117Z" fill="#4D4DE8"/>
</svg>
