<svg width="29" height="28" viewBox="0 0 29 28" fill="none" xmlns="http://www.w3.org/2000/svg">
<path d="M8.44434 21.8799H20.5469C22.4541 21.8799 23.4473 20.8955 23.4473 19.0146V8.31836C23.4473 6.4375 22.4541 5.45312 20.5469 5.45312H8.44434C6.5459 5.45312 5.55273 6.42871 5.55273 8.31836V19.0146C5.55273 20.8955 6.5459 21.8799 8.44434 21.8799ZM8.43555 20.1309C7.70605 20.1309 7.30176 19.7529 7.30176 18.9795V10.8936C7.30176 10.1201 7.70605 9.74219 8.43555 9.74219H20.5557C21.2852 9.74219 21.6895 10.1201 21.6895 10.8936V18.9795C21.6895 19.7529 21.2852 20.1309 20.5557 20.1309H8.43555ZM12.8037 12.7744H13.3223C13.6387 12.7744 13.7441 12.6777 13.7441 12.3701V11.8516C13.7441 11.5352 13.6387 11.4385 13.3223 11.4385H12.8037C12.4873 11.4385 12.3818 11.5352 12.3818 11.8516V12.3701C12.3818 12.6777 12.4873 12.7744 12.8037 12.7744ZM15.6777 12.7744H16.1963C16.5039 12.7744 16.6094 12.6777 16.6094 12.3701V11.8516C16.6094 11.5352 16.5039 11.4385 16.1963 11.4385H15.6777C15.3613 11.4385 15.2559 11.5352 15.2559 11.8516V12.3701C15.2559 12.6777 15.3613 12.7744 15.6777 12.7744ZM18.543 12.7744H19.0615C19.3779 12.7744 19.4834 12.6777 19.4834 12.3701V11.8516C19.4834 11.5352 19.3779 11.4385 19.0615 11.4385H18.543C18.2354 11.4385 18.1299 11.5352 18.1299 11.8516V12.3701C18.1299 12.6777 18.2354 12.7744 18.543 12.7744ZM9.93848 15.6045H10.4482C10.7646 15.6045 10.8701 15.5078 10.8701 15.1914V14.6729C10.8701 14.3652 10.7646 14.2686 10.4482 14.2686H9.93848C9.62207 14.2686 9.5166 14.3652 9.5166 14.6729V15.1914C9.5166 15.5078 9.62207 15.6045 9.93848 15.6045ZM12.8037 15.6045H13.3223C13.6387 15.6045 13.7441 15.5078 13.7441 15.1914V14.6729C13.7441 14.3652 13.6387 14.2686 13.3223 14.2686H12.8037C12.4873 14.2686 12.3818 14.3652 12.3818 14.6729V15.1914C12.3818 15.5078 12.4873 15.6045 12.8037 15.6045ZM15.6777 15.6045H16.1963C16.5039 15.6045 16.6094 15.5078 16.6094 15.1914V14.6729C16.6094 14.3652 16.5039 14.2686 16.1963 14.2686H15.6777C15.3613 14.2686 15.2559 14.3652 15.2559 14.6729V15.1914C15.2559 15.5078 15.3613 15.6045 15.6777 15.6045ZM18.543 15.6045H19.0615C19.3779 15.6045 19.4834 15.5078 19.4834 15.1914V14.6729C19.4834 14.3652 19.3779 14.2686 19.0615 14.2686H18.543C18.2354 14.2686 18.1299 14.3652 18.1299 14.6729V15.1914C18.1299 15.5078 18.2354 15.6045 18.543 15.6045ZM9.93848 18.4258H10.4482C10.7646 18.4258 10.8701 18.3291 10.8701 18.0215V17.5029C10.8701 17.1865 10.7646 17.0898 10.4482 17.0898H9.93848C9.62207 17.0898 9.5166 17.1865 9.5166 17.5029V18.0215C9.5166 18.3291 9.62207 18.4258 9.93848 18.4258ZM12.8037 18.4258H13.3223C13.6387 18.4258 13.7441 18.3291 13.7441 18.0215V17.5029C13.7441 17.1865 13.6387 17.0898 13.3223 17.0898H12.8037C12.4873 17.0898 12.3818 17.1865 12.3818 17.5029V18.0215C12.3818 18.3291 12.4873 18.4258 12.8037 18.4258ZM15.6777 18.4258H16.1963C16.5039 18.4258 16.6094 18.3291 16.6094 18.0215V17.5029C16.6094 17.1865 16.5039 17.0898 16.1963 17.0898H15.6777C15.3613 17.0898 15.2559 17.1865 15.2559 17.5029V18.0215C15.2559 18.3291 15.3613 18.4258 15.6777 18.4258Z" fill="#666E80"/>
</svg>
