<svg width="28" height="28" viewBox="0 0 28 28" fill="none" xmlns="http://www.w3.org/2000/svg">
<path d="M7.94434 21.8799H20.0469C21.9541 21.8799 22.9473 20.8955 22.9473 19.0146V8.31836C22.9473 6.4375 21.9541 5.45312 20.0469 5.45312H7.94434C6.0459 5.45312 5.05273 6.42871 5.05273 8.31836V19.0146C5.05273 20.8955 6.0459 21.8799 7.94434 21.8799ZM7.93555 20.1309C7.20605 20.1309 6.80176 19.7529 6.80176 18.9795V10.8936C6.80176 10.1201 7.20605 9.74219 7.93555 9.74219H20.0557C20.7852 9.74219 21.1895 10.1201 21.1895 10.8936V18.9795C21.1895 19.7529 20.7852 20.1309 20.0557 20.1309H7.93555ZM12.3037 12.7744H12.8223C13.1387 12.7744 13.2441 12.6777 13.2441 12.3701V11.8516C13.2441 11.5352 13.1387 11.4385 12.8223 11.4385H12.3037C11.9873 11.4385 11.8818 11.5352 11.8818 11.8516V12.3701C11.8818 12.6777 11.9873 12.7744 12.3037 12.7744ZM15.1777 12.7744H15.6963C16.0039 12.7744 16.1094 12.6777 16.1094 12.3701V11.8516C16.1094 11.5352 16.0039 11.4385 15.6963 11.4385H15.1777C14.8613 11.4385 14.7559 11.5352 14.7559 11.8516V12.3701C14.7559 12.6777 14.8613 12.7744 15.1777 12.7744ZM18.043 12.7744H18.5615C18.8779 12.7744 18.9834 12.6777 18.9834 12.3701V11.8516C18.9834 11.5352 18.8779 11.4385 18.5615 11.4385H18.043C17.7354 11.4385 17.6299 11.5352 17.6299 11.8516V12.3701C17.6299 12.6777 17.7354 12.7744 18.043 12.7744ZM9.43848 15.6045H9.94824C10.2646 15.6045 10.3701 15.5078 10.3701 15.1914V14.6729C10.3701 14.3652 10.2646 14.2686 9.94824 14.2686H9.43848C9.12207 14.2686 9.0166 14.3652 9.0166 14.6729V15.1914C9.0166 15.5078 9.12207 15.6045 9.43848 15.6045ZM12.3037 15.6045H12.8223C13.1387 15.6045 13.2441 15.5078 13.2441 15.1914V14.6729C13.2441 14.3652 13.1387 14.2686 12.8223 14.2686H12.3037C11.9873 14.2686 11.8818 14.3652 11.8818 14.6729V15.1914C11.8818 15.5078 11.9873 15.6045 12.3037 15.6045ZM15.1777 15.6045H15.6963C16.0039 15.6045 16.1094 15.5078 16.1094 15.1914V14.6729C16.1094 14.3652 16.0039 14.2686 15.6963 14.2686H15.1777C14.8613 14.2686 14.7559 14.3652 14.7559 14.6729V15.1914C14.7559 15.5078 14.8613 15.6045 15.1777 15.6045ZM18.043 15.6045H18.5615C18.8779 15.6045 18.9834 15.5078 18.9834 15.1914V14.6729C18.9834 14.3652 18.8779 14.2686 18.5615 14.2686H18.043C17.7354 14.2686 17.6299 14.3652 17.6299 14.6729V15.1914C17.6299 15.5078 17.7354 15.6045 18.043 15.6045ZM9.43848 18.4258H9.94824C10.2646 18.4258 10.3701 18.3291 10.3701 18.0215V17.5029C10.3701 17.1865 10.2646 17.0898 9.94824 17.0898H9.43848C9.12207 17.0898 9.0166 17.1865 9.0166 17.5029V18.0215C9.0166 18.3291 9.12207 18.4258 9.43848 18.4258ZM12.3037 18.4258H12.8223C13.1387 18.4258 13.2441 18.3291 13.2441 18.0215V17.5029C13.2441 17.1865 13.1387 17.0898 12.8223 17.0898H12.3037C11.9873 17.0898 11.8818 17.1865 11.8818 17.5029V18.0215C11.8818 18.3291 11.9873 18.4258 12.3037 18.4258ZM15.1777 18.4258H15.6963C16.0039 18.4258 16.1094 18.3291 16.1094 18.0215V17.5029C16.1094 17.1865 16.0039 17.0898 15.6963 17.0898H15.1777C14.8613 17.0898 14.7559 17.1865 14.7559 17.5029V18.0215C14.7559 18.3291 14.8613 18.4258 15.1777 18.4258Z" fill="#666E80"/>
</svg>
