<svg width="28" height="28" viewBox="0 0 28 28" fill="none" xmlns="http://www.w3.org/2000/svg">
<path d="M13.9912 22.7588C18.9746 22.7588 23.0879 18.6455 23.0879 13.6621C23.0879 8.6875 18.9658 4.57422 13.9824 4.57422C9.00781 4.57422 4.90332 8.6875 4.90332 13.6621C4.90332 18.6455 9.0166 22.7588 13.9912 22.7588ZM13.9912 9.14453C16.7422 9.14453 18.8955 10.9375 18.8955 13.1699C18.8955 15.3936 16.7422 17.1865 13.9912 17.1865C13.7891 17.1865 13.5957 17.1777 13.4287 17.1689C13.3232 17.1602 13.2705 17.1865 13.165 17.248C12.2686 17.793 11.3721 18.1797 10.8799 18.1797C10.4756 18.1797 10.3877 17.8633 10.6426 17.5732C10.8271 17.3447 11.082 17.0547 11.2402 16.7471C11.293 16.6416 11.3018 16.5449 11.1875 16.4746C9.93066 15.7188 9.08691 14.541 9.08691 13.1699C9.08691 10.9375 11.2314 9.14453 13.9912 9.14453Z" fill="#4D4DE8"/>
</svg>
