<svg width="10" height="17" viewBox="0 0 10 17" fill="none" xmlns="http://www.w3.org/2000/svg">
<path d="M9.65137 8.6543C9.64258 8.34668 9.52832 8.08301 9.29102 7.8457L2.45312 1.15723C2.25098 0.963867 2.01367 0.858398 1.72363 0.858398C1.13477 0.858398 0.677734 1.31543 0.677734 1.9043C0.677734 2.18555 0.791992 2.44922 0.994141 2.65137L7.14648 8.6543L0.994141 14.6572C0.791992 14.8594 0.677734 15.1143 0.677734 15.4043C0.677734 15.9932 1.13477 16.4502 1.72363 16.4502C2.00488 16.4502 2.25098 16.3447 2.45312 16.1514L9.29102 9.4541C9.53711 9.22559 9.65137 8.96191 9.65137 8.6543Z" fill="#4D4DE8"/>
</svg>
