<svg width="14" height="17" viewBox="0 0 14 17" fill="none" xmlns="http://www.w3.org/2000/svg">
<path d="M1.18164 14.6396C0.645508 14.6396 0.258789 15.0439 0.258789 15.5889C0.258789 16.1338 0.645508 16.5381 1.18164 16.5381H12.792C13.3369 16.5381 13.7324 16.1338 13.7324 15.5889C13.7324 15.0439 13.3369 14.6396 12.792 14.6396H7.20215C7.39551 14.6045 7.57129 14.499 7.71191 14.3496L13.3281 8.78613C13.5391 8.5752 13.6445 8.33789 13.6445 8.08301C13.6445 7.53809 13.249 7.14258 12.7217 7.14258C12.4492 7.14258 12.2031 7.25684 12.0273 7.43262L10.2168 9.20801L7.87012 11.7832L7.95801 9.9375V1.75488C7.95801 1.1748 7.5625 0.779297 7 0.779297C6.42871 0.779297 6.0332 1.1748 6.0332 1.75488V9.9375L6.12109 11.792L3.77441 9.20801L1.97266 7.43262C1.78809 7.24805 1.55078 7.14258 1.27832 7.14258C0.742188 7.14258 0.355469 7.53809 0.355469 8.08301C0.355469 8.33789 0.452148 8.5752 0.663086 8.78613L6.2793 14.3496C6.41992 14.499 6.5957 14.6045 6.78906 14.6396H1.18164Z" fill="#4D4DE8"/>
</svg>
