<svg width="12" height="20" viewBox="0 0 12 20" fill="none"
    xmlns="http://www.w3.org/2000/svg">
    <path d="M0 10.0005C0 10.3936 0.145996 10.7305 0.460449 11.0225L9.19775 19.5801C9.44482 19.8271 9.75928 19.9619 10.1299 19.9619C10.8711 19.9619 11.4663 19.3779 11.4663 18.6255C11.4663 18.2549 11.3091 17.9292 11.062 17.6709L3.18945 10.0005L11.062 2.33008C11.3091 2.07178 11.4663 1.73486 11.4663 1.37549C11.4663 0.623047 10.8711 0.0390625 10.1299 0.0390625C9.75928 0.0390625 9.44482 0.173828 9.19775 0.420898L0.460449 8.96729C0.145996 9.27051 0 9.60742 0 10.0005Z" fill="black"/>
</svg>
