<svg width="30" height="46" viewBox="0 0 30 46" fill="none" xmlns="http://www.w3.org/2000/svg">
<path d="M9 23C9 23.3931 9.146 23.73 9.46045 24.022L18.1978 32.5796C18.4448 32.8267 18.7593 32.9614 19.1299 32.9614C19.8711 32.9614 20.4663 32.3774 20.4663 31.625C20.4663 31.2544 20.3091 30.9287 20.062 30.6704L12.1895 23L20.062 15.3296C20.3091 15.0713 20.4663 14.7344 20.4663 14.375C20.4663 13.6226 19.8711 13.0386 19.1299 13.0386C18.7593 13.0386 18.4448 13.1733 18.1978 13.4204L9.46045 21.9668C9.146 22.27 9 22.6069 9 23Z" fill="black"/>
</svg>
