<svg width="10" height="10" viewBox="0 0 10 10" fill="none" xmlns="http://www.w3.org/2000/svg">
<path d="M3.78463 9.56002C4.01409 9.56002 4.19552 9.45864 4.32359 9.2612L9.36632 1.32091C9.46237 1.16616 9.49972 1.04876 9.49972 0.926025C9.49972 0.632533 9.30762 0.44043 9.01413 0.44043C8.80068 0.44043 8.68328 0.509801 8.55521 0.712577L3.76329 8.3487L1.27661 5.09361C1.14321 4.90684 1.0098 4.83214 0.817697 4.83214C0.513532 4.83214 0.30542 5.04025 0.30542 5.33374C0.30542 5.45647 0.358782 5.59522 0.46017 5.72328L3.22967 9.25052C3.38975 9.45864 3.55518 9.56002 3.78463 9.56002Z" fill="#2C9C2A"/>
</svg>
