<svg width="28" height="28" viewBox="0 0 28 28" fill="none" xmlns="http://www.w3.org/2000/svg">
<path d="M7.18861 19.0509C6.81947 19.4201 6.80189 20.0792 7.1974 20.466C7.58412 20.8527 8.2433 20.8439 8.61244 20.4747L13.9913 15.087L19.379 20.4747C19.757 20.8527 20.4074 20.8527 20.7941 20.466C21.172 20.0704 21.1808 19.4288 20.7941 19.0509L15.4152 13.6632L20.7941 8.28431C21.1808 7.90638 21.1808 7.25599 20.7941 6.86927C20.3986 6.49134 19.757 6.48255 19.379 6.86048L13.9913 12.2482L8.61244 6.86048C8.2433 6.49134 7.57533 6.47376 7.1974 6.86927C6.81068 7.25599 6.81947 7.91517 7.18861 8.28431L12.5763 13.6632L7.18861 19.0509Z" fill="#CE6A6A"/>
</svg>
