<svg width="24" height="23" viewBox="0 0 24 23" fill="none" xmlns="http://www.w3.org/2000/svg">
<path d="M23.0039 5.51575L14.417 1.58703C13.4941 1.16516 12.7383 0.9718 12 0.989379C11.2617 0.9718 10.5059 1.16516 9.58301 1.58703L0.996094 5.51575C0.380859 5.78821 0.0644531 6.29797 0.0644531 6.81653C0.0644531 7.34387 0.380859 7.84485 0.996094 8.11731L4.39746 9.65539L10.1016 6.99231C10.0664 6.93078 10.0488 6.87805 10.0488 6.81653C10.0488 6.17493 11.0244 5.71789 12.0264 5.71789C13.0371 5.71789 14.0039 6.17493 14.0039 6.81653C14.0039 7.47571 13.0371 7.94153 12.0264 7.94153C11.7188 7.94153 11.4023 7.89758 11.1211 7.80969L5.76855 10.3058L9.58301 12.0548C10.5059 12.4767 11.2617 12.6613 12 12.6525C12.7383 12.6613 13.4941 12.4767 14.417 12.0548L23.0039 8.11731C23.6191 7.83606 23.9355 7.34387 23.9355 6.81653C23.9355 6.29797 23.6191 5.78821 23.0039 5.51575ZM5.7334 11.712V16.8536C7.2627 17.7677 9.43359 18.3214 12 18.3214C17.1592 18.3214 20.7012 16.0978 20.7012 13.3556V10.587L14.9531 13.2238C13.8896 13.7072 12.9229 13.9532 12 13.9445C11.0859 13.9532 10.1104 13.7072 9.04688 13.2238L5.7334 11.712ZM3.29883 10.5958V13.3556C3.29883 14.1202 3.70312 15.0255 4.43262 15.7989V11.1144L3.29883 10.5958ZM3.65918 18.9366V21.213C3.65918 21.9601 4.15137 22.4523 4.89844 22.4523H5.26758C6.01465 22.4523 6.49805 21.9601 6.49805 21.213V18.9366C6.49805 18.3566 6.20801 17.9347 5.7334 17.7677V16.8536C5.22363 16.546 4.78418 16.1945 4.43262 15.7989V17.7677C3.95801 17.9259 3.65918 18.3566 3.65918 18.9366Z" fill="#4D4DE8"/>
</svg>
