<svg width="20" height="19" viewBox="0 0 20 19" fill="none" xmlns="http://www.w3.org/2000/svg">
<path d="M9.99121 18.7422C14.9746 18.7422 19.0879 14.6289 19.0879 9.6543C19.0879 4.67969 14.9658 0.566406 9.98242 0.566406C5.00781 0.566406 0.90332 4.67969 0.90332 9.6543C0.90332 14.6289 5.0166 18.7422 9.99121 18.7422ZM9.99121 16.9316C5.95703 16.9316 2.73145 13.6885 2.73145 9.6543C2.73145 5.62012 5.95703 2.38574 9.98242 2.38574C14.0166 2.38574 17.2598 5.62012 17.2686 9.6543C17.2773 13.6885 14.0254 16.9316 9.99121 16.9316ZM15.9766 9.6543C15.9766 7.93164 14.8691 6.7627 13.252 6.7627C12.417 6.7627 11.6875 7.10547 10.8965 7.87891L10 8.74023L9.10352 7.87891C8.32129 7.12305 7.5918 6.7627 6.74805 6.7627C5.12207 6.7627 4.01465 7.93164 4.01465 9.6543C4.01465 11.377 5.12207 12.5459 6.74805 12.5459C7.5918 12.5459 8.32129 12.1768 9.10352 11.4297L10 10.5596L10.8965 11.4297C11.6875 12.1943 12.417 12.5459 13.252 12.5459C14.8691 12.5459 15.9766 11.377 15.9766 9.6543ZM9.04199 9.6543L8.18066 10.4717C7.63574 10.9727 7.21387 11.2012 6.74805 11.2012C5.89551 11.2012 5.35059 10.6035 5.35059 9.6543C5.35059 8.70508 5.89551 8.10742 6.74805 8.10742C7.19629 8.10742 7.61816 8.31836 8.18066 8.83691L9.04199 9.6543ZM10.9492 9.6543L11.8193 8.83691C12.373 8.31836 12.7949 8.10742 13.252 8.10742C14.0957 8.10742 14.6406 8.70508 14.6406 9.6543C14.6406 10.6035 14.0957 11.2012 13.252 11.2012C12.7861 11.2012 12.3643 10.9727 11.8193 10.4717L10.9492 9.6543Z" fill="#666E80"/>
</svg>
