<svg width="28" height="28" viewBox="0 0 28 28" fill="none" xmlns="http://www.w3.org/2000/svg">
<path d="M25.0039 9.51575L16.417 5.58703C15.4941 5.16516 14.7383 4.9718 14 4.98938C13.2617 4.9718 12.5059 5.16516 11.583 5.58703L2.99609 9.51575C2.38086 9.78821 2.06445 10.298 2.06445 10.8165C2.06445 11.3439 2.38086 11.8448 2.99609 12.1173L6.39746 13.6554L12.1016 10.9923C12.0664 10.9308 12.0488 10.8781 12.0488 10.8165C12.0488 10.1749 13.0244 9.71789 14.0264 9.71789C15.0371 9.71789 16.0039 10.1749 16.0039 10.8165C16.0039 11.4757 15.0371 11.9415 14.0264 11.9415C13.7188 11.9415 13.4023 11.8976 13.1211 11.8097L7.76855 14.3058L11.583 16.0548C12.5059 16.4767 13.2617 16.6613 14 16.6525C14.7383 16.6613 15.4941 16.4767 16.417 16.0548L25.0039 12.1173C25.6191 11.8361 25.9355 11.3439 25.9355 10.8165C25.9355 10.298 25.6191 9.78821 25.0039 9.51575ZM7.7334 15.712V20.8536C9.2627 21.7677 11.4336 22.3214 14 22.3214C19.1592 22.3214 22.7012 20.0978 22.7012 17.3556V14.587L16.9531 17.2238C15.8896 17.7072 14.9229 17.9532 14 17.9445C13.0859 17.9532 12.1104 17.7072 11.0469 17.2238L7.7334 15.712ZM5.29883 14.5958V17.3556C5.29883 18.1202 5.70312 19.0255 6.43262 19.7989V15.1144L5.29883 14.5958ZM5.65918 22.9366V25.213C5.65918 25.9601 6.15137 26.4523 6.89844 26.4523H7.26758C8.01465 26.4523 8.49805 25.9601 8.49805 25.213V22.9366C8.49805 22.3566 8.20801 21.9347 7.7334 21.7677V20.8536C7.22363 20.546 6.78418 20.1945 6.43262 19.7989V21.7677C5.95801 21.9259 5.65918 22.3566 5.65918 22.9366Z" fill="#4D4DE8"/>
</svg>
