<svg width="28" height="15" viewBox="0 0 28 15" fill="none" xmlns="http://www.w3.org/2000/svg">
<path d="M0.640625 14.7051C1.02734 14.7051 1.36133 14.5908 1.73926 14.3711L10.748 9.08008C11.2666 8.77246 11.5918 8.41211 11.6973 7.98145V13.0527C11.6973 14.1162 12.3477 14.7051 13.1211 14.7051C13.5078 14.7051 13.8418 14.5908 14.2197 14.3711L23.2285 9.08008C23.7559 8.77246 24.0723 8.41211 24.1865 7.98145V13.7031C24.1865 14.5381 24.6084 14.9688 25.4521 14.9688H27.5176C28.3525 14.9688 28.7832 14.5381 28.7832 13.7031V1.60938C28.7832 0.756836 28.3525 0.34375 27.5176 0.34375H25.4521C24.6172 0.34375 24.1865 0.774414 24.1865 1.60938V7.26953C24.0723 6.83887 23.7559 6.49609 23.2285 6.17969L14.2197 0.888672C13.8418 0.668945 13.5078 0.554688 13.1211 0.554688C12.3477 0.554688 11.6973 1.13477 11.6973 2.20703V7.26953C11.5918 6.83887 11.2754 6.49609 10.748 6.17969L1.73926 0.888672C1.35254 0.668945 1.02734 0.554688 0.631836 0.554688C-0.141602 0.554688 -0.783203 1.13477 -0.783203 2.20703V13.0527C-0.783203 14.1162 -0.132812 14.7051 0.640625 14.7051Z" fill="#4D4DE8"/>
</svg>
