<svg width="12" height="15" viewBox="0 0 12 15" fill="none" xmlns="http://www.w3.org/2000/svg">
<path d="M1.63197 14.9688H3.6974C4.53236 14.9688 4.96302 14.5381 4.96302 13.7031V1.60938C4.96302 0.756836 4.53236 0.352539 3.6974 0.34375H1.63197C0.797007 0.34375 0.366343 0.774414 0.366343 1.60938V13.7031C0.357554 14.5381 0.788218 14.9688 1.63197 14.9688ZM8.31166 14.9688H10.3683C11.2033 14.9688 11.6339 14.5381 11.6339 13.7031V1.60938C11.6339 0.756836 11.2033 0.34375 10.3683 0.34375H8.31166C7.46791 0.34375 7.04603 0.774414 7.04603 1.60938V13.7031C7.04603 14.5381 7.46791 14.9688 8.31166 14.9688Z" fill="white"/>
</svg>
