<svg width="22" height="19" viewBox="0 0 22 19" fill="none" xmlns="http://www.w3.org/2000/svg">
<path d="M11.0879 10.1207L16.502 4.70662L13.8916 2.08748C12.2041 0.399975 9.99805 0.364819 8.37207 1.98201C6.75488 3.5904 6.78125 5.81404 8.47754 7.51033L11.0879 10.1207ZM12.2656 11.3072L14.8848 13.9263C16.5811 15.6138 18.7783 15.649 20.4131 14.0318C22.0303 12.4234 22.0039 10.1998 20.3076 8.50349L17.6885 5.88435L12.2656 11.3072ZM0.400391 13.3814H9.7959C9.42676 11.1402 7.4668 9.41755 5.10254 9.41755C2.72949 9.41755 0.769531 11.1402 0.400391 13.3814ZM0.400391 14.981C0.769531 17.2398 2.7207 18.9625 5.10254 18.9625C7.4668 18.9625 9.41797 17.231 9.7959 14.981H0.400391Z" fill="#4D4DE8"/>
</svg>
