<svg width="12" height="21" viewBox="0 0 12 21" fill="none" xmlns="http://www.w3.org/2000/svg">
<path d="M4.84863 20.2109C7.50293 20.2109 9.65625 18.0664 9.65625 15.4033C9.65625 14.041 9.10254 12.8457 8.05664 11.8789C7.87207 11.7119 7.82812 11.6064 7.82812 11.3604L7.83691 3.66113C7.83691 1.69238 6.63281 0.382812 4.84863 0.382812C3.04688 0.382812 1.8252 1.69238 1.8252 3.66113L1.84277 11.3604C1.84277 11.6064 1.79883 11.7119 1.61426 11.8789C0.55957 12.8369 0.0146484 14.041 0.0146484 15.4033C0.0146484 18.0664 2.16797 20.2109 4.84863 20.2109ZM4.84863 18.6816C3.02051 18.6816 1.55273 17.2051 1.55273 15.3857C1.55273 14.2695 2.08008 13.3027 3.00293 12.6787C3.27539 12.5029 3.38086 12.3359 3.38086 11.9844V3.72266C3.38086 2.62402 3.96973 1.9209 4.84863 1.9209C5.70117 1.9209 6.29004 2.62402 6.29004 3.72266V11.9844C6.29004 12.3359 6.39551 12.5029 6.66797 12.6787C7.59082 13.3027 8.11816 14.2695 8.11816 15.3857C8.11816 17.2051 6.65039 18.6816 4.84863 18.6816ZM9.51562 3.81934H11.4404C11.7744 3.81934 11.9854 3.57324 11.9854 3.2832C11.9854 2.99316 11.7744 2.74707 11.4404 2.74707H9.51562C9.18164 2.74707 8.96191 2.99316 8.96191 3.2832C8.96191 3.57324 9.18164 3.81934 9.51562 3.81934ZM9.51562 6.25391H11.4404C11.7744 6.25391 11.9854 6.00781 11.9854 5.71777C11.9854 5.42773 11.7744 5.18164 11.4404 5.18164H9.51562C9.18164 5.18164 8.96191 5.42773 8.96191 5.71777C8.96191 6.00781 9.18164 6.25391 9.51562 6.25391ZM9.51562 8.70605H11.4404C11.7744 8.70605 11.9854 8.45996 11.9854 8.16992C11.9854 7.87988 11.7744 7.63379 11.4404 7.63379H9.51562C9.18164 7.63379 8.96191 7.87988 8.96191 8.16992C8.96191 8.45996 9.18164 8.70605 9.51562 8.70605ZM4.83105 17.4951C6 17.4951 6.94043 16.5547 6.94043 15.377C6.94043 14.5684 6.4834 13.8916 5.80664 13.5312C5.52539 13.3818 5.4375 13.2764 5.4375 12.8545V8.36328C5.4375 7.91504 5.17383 7.63379 4.83105 7.63379C4.49707 7.63379 4.2334 7.91504 4.2334 8.36328V12.8545C4.2334 13.2764 4.14551 13.3818 3.86426 13.5312C3.1875 13.8916 2.73047 14.5684 2.73047 15.377C2.73047 16.5547 3.6709 17.4951 4.83105 17.4951ZM9.51562 11.1494H11.4404C11.7744 11.1494 11.9854 10.9033 11.9854 10.6133C11.9854 10.3232 11.7744 10.0771 11.4404 10.0771H9.51562C9.18164 10.0771 8.96191 10.3232 8.96191 10.6133C8.96191 10.9033 9.18164 11.1494 9.51562 11.1494Z" fill="#4D4DE8"/>
</svg>
