<svg width="28" height="28" viewBox="0 0 28 28" fill="none" xmlns="http://www.w3.org/2000/svg">
<path d="M8.18066 19.6396C7.64453 19.6396 7.25781 20.0439 7.25781 20.5889C7.25781 21.1338 7.64453 21.5381 8.18066 21.5381H19.791C20.3359 21.5381 20.7314 21.1338 20.7314 20.5889C20.7314 20.0439 20.3359 19.6396 19.791 19.6396H14.2012C14.3945 19.6045 14.5703 19.499 14.7109 19.3496L20.3271 13.7861C20.5381 13.5752 20.6436 13.3379 20.6436 13.083C20.6436 12.5381 20.248 12.1426 19.7207 12.1426C19.4482 12.1426 19.2021 12.2568 19.0264 12.4326L17.2158 14.208L14.8691 16.7832L14.957 14.9375V6.75488C14.957 6.1748 14.5615 5.7793 13.999 5.7793C13.4277 5.7793 13.0322 6.1748 13.0322 6.75488V14.9375L13.1201 16.792L10.7734 14.208L8.97168 12.4326C8.78711 12.248 8.5498 12.1426 8.27734 12.1426C7.74121 12.1426 7.35449 12.5381 7.35449 13.083C7.35449 13.3379 7.45117 13.5752 7.66211 13.7861L13.2783 19.3496C13.4189 19.499 13.5947 19.6045 13.7881 19.6396H8.18066Z" fill="#4D4DE8"/>
</svg>
