<svg width="10" height="10" viewBox="0 0 10 10" fill="none" xmlns="http://www.w3.org/2000/svg">
<path d="M0.621213 8.24674C0.383909 8.48404 0.372608 8.9078 0.626863 9.1564C0.875468 9.40501 1.29923 9.39936 1.53653 9.16205L4.9944 5.69854L8.45792 9.16205C8.70087 9.40501 9.11898 9.40501 9.36759 9.1564C9.61054 8.90215 9.61619 8.48969 9.36759 8.24674L5.90972 4.78322L9.36759 1.32535C9.61619 1.08239 9.61619 0.664287 9.36759 0.415682C9.11333 0.172727 8.70087 0.167077 8.45792 0.410032L4.9944 3.87355L1.53653 0.410032C1.29923 0.172727 0.869818 0.161427 0.626863 0.415682C0.378258 0.664287 0.383909 1.08804 0.621213 1.32535L4.08473 4.78322L0.621213 8.24674Z" fill="#CE6A6A"/>
</svg>
