<svg width="28" height="28" viewBox="0 0 28 28" fill="none" xmlns="http://www.w3.org/2000/svg">
<path d="M13.9912 22.7588C18.9746 22.7588 23.0879 18.6455 23.0879 13.6621C23.0879 8.6875 18.9658 4.57422 13.9824 4.57422C9.00781 4.57422 4.90332 8.6875 4.90332 13.6621C4.90332 18.6455 9.0166 22.7588 13.9912 22.7588ZM10.3262 17.2656C9.40332 17.2656 8.84961 16.7559 8.84961 15.8418V11.5176C8.84961 10.6035 9.42969 10.0762 10.3262 10.0762H14.9668C15.9072 10.0762 16.3994 10.6035 16.3994 11.5176V15.8242C16.3994 16.7295 15.8633 17.2656 14.9316 17.2656H10.3262ZM16.918 14.9805V12.3789L18.5352 10.999C18.7197 10.8496 18.9131 10.7529 19.0889 10.7529C19.4404 10.7529 19.6777 10.999 19.6777 11.377V15.9736C19.6777 16.3604 19.4404 16.6064 19.0889 16.6064C18.9131 16.6064 18.7197 16.5098 18.5352 16.3604L16.918 14.9805Z" fill="#4D4DE8"/>
</svg>
